<svg xmlns="http://www.w3.org/2000/svg"
    xmlns:xlink="http://www.w3.org/1999/xlink" width="1000" height="1000" viewBox="0 0 1000 1000">

    <g id="b" clip-path="url(#c)">
        <rect width="1000" height="1000" fill="url(#a)"/>
        <g transform="translate(137.1 137.1)" opacity="0.78">
            <path d="M-10016.073-7649.639l-14.488-93.85a267.959,267.959,0,0,1-62.583-36l-86.705,33.909a355.294,355.294,0,0,1-89.456-158.825l69.366-53.292c0-12.6-1.837-23.4-1.837-36s1.837-23.4,1.837-36l-69.635-52.244a355.31,355.31,0,0,1,89.211-159.347L-10095-8207.9c20.26-14.4,40.507-27,62.6-36l14.405-93.342a356.338,356.338,0,0,1,93.3-12.354,356.251,356.251,0,0,1,91.334,11.831l12.685,93.865a267.822,267.822,0,0,1,62.583,36l87.921-34.388a358.826,358.826,0,0,1,67.137,96.082,353.248,353.248,0,0,1,22.637,62.035l-70.9,54.476c0,12.6,1.837,23.4,1.837,36s0,25.211-1.837,36l71.441,52.386a355.33,355.33,0,0,1-89.18,159.207l-85.369-33.386c-20.239,14.4-40.5,27-62.581,36l-14.426,93.339A356.242,356.242,0,0,1-9924.7-7637.8,356.475,356.475,0,0,1-10016.073-7649.639Z" transform="translate(10287.6 8356.6)" fill="#e8e8e8"/>
            <path d="M-9866.891-7817.722a37.189,37.189,0,0,1,37.187-37.191,37.192,37.192,0,0,1,37.193,37.191,37.192,37.192,0,0,1-37.193,37.189A37.189,37.189,0,0,1-9866.891-7817.722Zm196.68-47.236a54.847,54.847,0,0,1,21.181-58.685,54.757,54.757,0,0,1,20.933-9.091l36.712,26.92a353.473,353.473,0,0,1-31.93,81.328A54.84,54.84,0,0,1-9670.211-7864.958ZM-10159-7904.809a54.83,54.83,0,0,1,54.833-54.827,54.828,54.828,0,0,1,54.826,54.827,54.829,54.829,0,0,1-54.826,54.832A54.831,54.831,0,0,1-10159-7904.809Zm335.531-161.958a37.189,37.189,0,0,1,37.189-37.188,37.189,37.189,0,0,1,37.188,37.188,37.19,37.19,0,0,1-37.188,37.191A37.19,37.19,0,0,1-9823.466-8066.767Zm-435.052,1.267a330.965,330.965,0,0,1,57.967-126.154,10.845,10.845,0,0,1,15.185-2.17,10.845,10.845,0,0,1,2.172,15.185,309.065,309.065,0,0,0-55.363,123.543,10.832,10.832,0,0,1-1.393,3.527Zm207.01-98.4a54.83,54.83,0,0,1,54.83-54.827,54.829,54.829,0,0,1,54.829,54.827,54.83,54.83,0,0,1-54.829,54.832A54.831,54.831,0,0,1-10051.508-8163.9Zm215.564,7.787a18.6,18.6,0,0,1,18.6-18.6,18.6,18.6,0,0,1,18.593,18.6,18.594,18.594,0,0,1-18.593,18.593A18.594,18.594,0,0,1-9835.943-8156.114Zm-314.2-69.35,1.76.688A10.8,10.8,0,0,1-10150.147-8225.464Z" transform="translate(10299.124 8357.099)" fill="#cdcdcd"/>
        </g>
        <g transform="translate(304 304)">
            <path d="M170.057,137.827a11.512,11.512,0,0,0-10.752-5.558l-93.459,7.219A30.35,30.35,0,0,0,42.72,153.1L3.5,212.418a21.021,21.021,0,0,0,14.318,32.368L93.6,256.524a11.491,11.491,0,0,0,11.451-5.171l64.831-101.424A11.5,11.5,0,0,0,170.057,137.827Z" transform="translate(0 -30.848)" fill="#e45a6e"/>
            <path d="M336.319,289.708a11.5,11.5,0,0,0-12.1.176L222.793,354.716a11.5,11.5,0,0,0-5.172,11.451l11.737,75.782a21.007,21.007,0,0,0,32.369,14.318l59.323-39.222a30.341,30.341,0,0,0,13.607-23.126l7.219-93.458a11.5,11.5,0,0,0-5.558-10.753Z" transform="translate(-50.736 -67.203)" fill="#d82e44"/>
            <path d="M169.34,316.1a20.062,20.062,0,0,0,17.466,5.651c93.625-15.655,167.713-93.173,195.918-147.7C414.043,113.5,415.2,49.509,413.566,19.5A20.159,20.159,0,0,0,394.525.458c-30.009-1.636-94-.476-154.547,30.844-54.53,28.205-132.049,102.292-147.7,195.918a20.064,20.064,0,0,0,5.651,17.466Z" transform="translate(-21.463 0)" fill="#f1f1fb"/>
            <path d="M420.357,8.261,146.3,282.32l35.708,35.708a20.064,20.064,0,0,0,17.466,5.651c93.625-15.655,167.712-93.173,195.918-147.7,31.32-60.551,32.48-124.538,30.843-154.547a20.125,20.125,0,0,0-5.875-13.167Z" transform="translate(-34.129 -1.927)" fill="#d7d6fb"/>
            <path d="M333.235,201.262A57.458,57.458,0,1,1,373.9,184.446,57.314,57.314,0,0,1,333.235,201.262Zm-32.53-90.006h.008Z" transform="translate(-64.323 -20.134)" fill="#466288"/>
            <path d="M92.274,278.686a20.064,20.064,0,0,0,5.651,17.466l71.415,71.415a20.064,20.064,0,0,0,17.466,5.651,229.892,229.892,0,0,0,58.069-18.134L110.408,220.618a229.888,229.888,0,0,0-18.134,58.068Z" transform="translate(-21.463 -51.466)" fill="#466288"/>
            <path d="M11.8,403.515a11.464,11.464,0,0,0,8.132-3.369L57.485,362.6a11.5,11.5,0,0,0-16.264-16.264L3.673,383.881A11.5,11.5,0,0,0,11.8,403.515Z" transform="translate(-0.071 -80.008)" fill="#fdb43a"/>
            <path d="M91.826,391.215a11.5,11.5,0,0,0-16.264,0L3.372,463.4a11.5,11.5,0,1,0,16.264,16.264l72.189-72.19A11.5,11.5,0,0,0,91.826,391.215Z" transform="translate(-0.001 -90.478)" fill="#fdb43a"/>
            <path d="M147.247,436.1a11.5,11.5,0,0,0-16.264,0L93.435,473.644A11.5,11.5,0,1,0,109.7,489.908l37.548-37.548A11.5,11.5,0,0,0,147.247,436.1Z" transform="translate(-21.011 -100.948)" fill="#f57a21"/>
            <path d="M4.4,480.694a11.5,11.5,0,0,0,16.264,0L92.851,408.5a11.5,11.5,0,0,0,0-16.264Z" transform="translate(-1.026 -91.503)" fill="#f57a21"/>
            <path d="M146.3,352.316l35.708,35.708a20.064,20.064,0,0,0,17.466,5.651A229.894,229.894,0,0,0,257.54,375.54l-67.233-67.233Z" transform="translate(-34.129 -71.923)" fill="#354a67"/>
            <path d="M297.7,189.563A57.5,57.5,0,0,0,379.02,108.24Z" transform="translate(-69.448 -25.251)" fill="#354a67"/>
            <path d="M340.232,116.295a34.473,34.473,0,1,0,24.4,10.088,34.392,34.392,0,0,0-24.4-10.088Z" transform="translate(-71.321 -27.13)" fill="#4bbefd"/>
            <path d="M367.7,129.454l-48.793,48.793A34.5,34.5,0,0,0,367.7,129.454Z" transform="translate(-74.396 -30.199)" fill="#0590fb"/>
        </g>
    </g>
</svg>
