<svg xmlns="http://www.w3.org/2000/svg" xmlns:xlink="http://www.w3.org/1999/xlink" width="1000" height="1000" viewBox="0 0 1000 1000"><defs><clipPath id="b"><rect width="1000" height="1000"/></clipPath></defs><g id="a" clip-path="url(#b)"><g transform="translate(-139.61 -144.098)"><g transform="translate(155.125 144.098)" opacity="0.78"><path d="M356.14,983.37,335.785,851.521a376.458,376.458,0,0,1-87.922-50.579L126.053,848.581A499.159,499.159,0,0,1,.377,625.449l97.452-74.868c0-17.708-2.581-32.87-2.581-50.578s2.581-32.871,2.581-50.575L0,376.031A499.165,499.165,0,0,1,125.331,152.167l119.923,46.9c28.463-20.23,56.907-37.938,87.951-50.578L353.442,17.357a503.587,503.587,0,0,1,259.384-.735l17.82,131.87a376.235,376.235,0,0,1,87.922,50.578l123.52-48.311a504.108,504.108,0,0,1,94.319,134.984,496.3,496.3,0,0,1,31.8,87.151L868.6,449.428c0,17.7,2.58,32.867,2.58,50.575s0,35.419-2.58,50.578l100.367,73.6A499.2,499.2,0,0,1,843.683,847.846l-119.934-46.9c-28.434,20.228-56.9,37.932-87.919,50.579L615.563,982.652a503.709,503.709,0,0,1-259.424.718Z" fill="#e8e8e8"/><path d="M550.191,572.831a52.248,52.248,0,1,1,52.242,52.246A52.246,52.246,0,0,1,550.191,572.831ZM826.5,506.47a77.042,77.042,0,0,1,59.164-95.217l51.576,37.819a496.623,496.623,0,0,1-44.857,114.257A77.045,77.045,0,0,1,826.5,506.47ZM139.815,450.483a77.029,77.029,0,1,1,77.033,77.032A77.03,77.03,0,0,1,139.815,450.483ZM611.2,222.951a52.246,52.246,0,1,1,52.247,52.25A52.246,52.246,0,0,1,611.2,222.951ZM0,224.73A464.973,464.973,0,0,1,81.437,47.5,15.239,15.239,0,0,1,105.82,65.782,434.2,434.2,0,0,0,28.042,239.347a15.22,15.22,0,0,1-1.957,4.955ZM290.825,86.488a77.029,77.029,0,1,1,77.03,77.032A77.03,77.03,0,0,1,290.825,86.488ZM593.669,97.428a26.123,26.123,0,1,1,26.124,26.121A26.126,26.126,0,0,1,593.669,97.428ZM152.248,0l2.472.966A15.228,15.228,0,0,1,152.248,0Z" transform="translate(31.724 175.102)" fill="#cdcdcd"/></g><g transform="translate(364.278 368.742)"><path d="M238.911,140.091a16.173,16.173,0,0,0-15.106-7.808l-131.3,10.142a42.639,42.639,0,0,0-32.489,19.117l-55.1,83.341A29.533,29.533,0,0,0,25.03,290.356L131.5,306.846a16.143,16.143,0,0,0,16.087-7.264l91.081-142.489A16.161,16.161,0,0,0,238.911,140.091Z" transform="translate(0 10.202)" fill="#e45a6e"/><path d="M384.432,290.369a16.158,16.158,0,0,0-17,.248L224.942,381.7a16.16,16.16,0,0,0-7.265,16.087L234.166,504.25a29.512,29.512,0,0,0,45.474,20.116l83.342-55.1A42.626,42.626,0,0,0,382.1,436.775l10.142-131.3a16.157,16.157,0,0,0-7.808-15.107Z" transform="translate(16.779 22.225)" fill="#d82e44"/><path d="M200.652,444.085a28.184,28.184,0,0,0,24.537,7.939c131.533-21.993,235.617-130.9,275.242-207.508,44-85.067,45.63-174.961,43.331-217.121A28.321,28.321,0,0,0,517.011.644c-42.16-2.3-132.053-.669-217.121,43.332C223.281,83.6,114.376,187.685,92.383,319.218a28.188,28.188,0,0,0,7.939,24.537Z" transform="translate(7.098 0)" fill="#f1f1fb"/><path d="M531.32,8.261,146.3,393.283l50.165,50.165A28.187,28.187,0,0,0,221,451.386c131.533-21.993,235.617-130.9,275.242-207.506,44-85.067,45.63-174.961,43.33-217.121a28.274,28.274,0,0,0-8.253-18.5Z" transform="translate(11.287 0.638)" fill="#d7d6fb"/><path d="M356.517,247.805a80.722,80.722,0,1,1,57.123-23.624A80.52,80.52,0,0,1,356.517,247.805Zm-45.7-126.448h.011Z" transform="translate(21.272 6.659)" fill="#466288"/><path d="M92.383,302.2a28.188,28.188,0,0,0,7.939,24.537l100.33,100.33A28.188,28.188,0,0,0,225.189,435a322.971,322.971,0,0,0,81.58-25.477L117.86,220.618A322.966,322.966,0,0,0,92.383,302.2Z" transform="translate(7.098 17.021)" fill="#466288"/><path d="M16.461,428.031A16.105,16.105,0,0,0,27.885,423.3l52.751-52.751a16.157,16.157,0,0,0-22.85-22.85L5.037,400.448a16.158,16.158,0,0,0,11.424,27.583Z" transform="translate(0.023 26.46)" fill="#fdb43a"/><path d="M129,392.579a16.159,16.159,0,0,0-22.85,0L4.736,494a16.157,16.157,0,1,0,22.85,22.849L129,415.427A16.155,16.155,0,0,0,129,392.579Z" transform="translate(0 29.923)" fill="#fdb43a"/><path d="M170.4,437.46a16.159,16.159,0,0,0-22.85,0L94.8,490.21a16.157,16.157,0,1,0,22.849,22.85L170.4,460.308A16.155,16.155,0,0,0,170.4,437.46Z" transform="translate(6.948 33.385)" fill="#f57a21"/><path d="M4.4,516.508a16.157,16.157,0,0,0,22.85,0L128.665,415.089a16.157,16.157,0,0,0,0-22.85Z" transform="translate(0.339 30.261)" fill="#f57a21"/><path d="M146.3,370.134,196.463,420.3A28.188,28.188,0,0,0,221,428.238a322.974,322.974,0,0,0,81.58-25.477l-94.454-94.454Z" transform="translate(11.287 23.786)" fill="#354a67"/><path d="M297.7,222.489A80.786,80.786,0,0,0,411.946,108.24Z" transform="translate(22.967 8.351)" fill="#354a67"/><path d="M354.2,116.295a48.431,48.431,0,1,0,34.276,14.173A48.317,48.317,0,0,0,354.2,116.295Z" transform="translate(23.587 8.972)" fill="#4bbefd"/><path d="M387.46,129.454,318.911,198a48.471,48.471,0,0,0,68.549-68.549Z" transform="translate(24.604 9.988)" fill="#0590fb"/></g></g></g></svg>